<svg width="43" height="43" viewBox="0 0 43 43" fill="none" xmlns="http://www.w3.org/2000/svg">
<g clip-path="url(#clip0_27_172)">
<path d="M21.5 43C33.3741 43 43 33.3741 43 21.5C43 9.62588 33.3741 0 21.5 0C9.62588 0 0 9.62588 0 21.5C0 33.3741 9.62588 43 21.5 43Z" fill="#5865F2"/>
<path d="M28.9506 14.6553C27.5567 14.0155 26.0856 13.5593 24.5742 13.2981C24.5604 13.2955 24.5462 13.2973 24.5335 13.3032C24.5209 13.3092 24.5104 13.319 24.5037 13.3313C24.303 13.695 24.1208 14.0687 23.9578 14.4508C22.3287 14.2034 20.6716 14.2034 19.0426 14.4508C18.8788 14.0677 18.694 13.694 18.4891 13.3313C18.4821 13.3193 18.4716 13.3097 18.459 13.3038C18.4464 13.2978 18.4323 13.2959 18.4186 13.2981C16.9076 13.5589 15.437 14.0151 14.0438 14.6553C14.0318 14.6603 14.0217 14.669 14.0148 14.6801C11.2278 18.8444 10.4644 22.9063 10.839 26.917C10.84 26.9269 10.8431 26.9364 10.8479 26.9451C10.8528 26.9537 10.8593 26.9613 10.8671 26.9674C12.49 28.1696 14.3054 29.0873 16.2358 29.6814C16.2494 29.6854 16.264 29.6852 16.2775 29.6808C16.291 29.6764 16.3028 29.6679 16.3114 29.6566C16.7259 29.0923 17.0932 28.4948 17.4095 27.8702C17.4138 27.8617 17.4163 27.8523 17.4167 27.8427C17.4171 27.8331 17.4155 27.8235 17.412 27.8146C17.4085 27.8057 17.4031 27.7976 17.3962 27.7909C17.3893 27.7842 17.3811 27.7791 17.3721 27.7758C16.7929 27.5545 16.2321 27.2877 15.695 26.9779C15.6852 26.9722 15.677 26.9641 15.6711 26.9545C15.6652 26.9448 15.6618 26.9339 15.6611 26.9226C15.6605 26.9113 15.6626 26.9 15.6673 26.8897C15.672 26.8795 15.6792 26.8705 15.6882 26.8637C15.8008 26.7797 15.9137 26.6915 16.0212 26.6025C16.0308 26.5947 16.0423 26.5896 16.0546 26.588C16.0668 26.5864 16.0793 26.5882 16.0905 26.5933C19.609 28.1999 23.4186 28.1999 26.8955 26.5933C26.9069 26.5878 26.9195 26.5857 26.932 26.5872C26.9445 26.5887 26.9563 26.5937 26.9661 26.6017C27.0736 26.6903 27.1865 26.7793 27.302 26.8637C27.3111 26.8705 27.3183 26.8794 27.3231 26.8896C27.3279 26.8998 27.3301 26.9111 27.3295 26.9224C27.3289 26.9336 27.3256 26.9446 27.3198 26.9543C27.314 26.964 27.3058 26.9721 27.2961 26.9779C26.7597 27.2907 26.1978 27.5576 25.6165 27.7758C25.6074 27.7792 25.5992 27.7845 25.5923 27.7913C25.5854 27.7981 25.5801 27.8064 25.5766 27.8154C25.5732 27.8245 25.5717 27.8341 25.5723 27.8438C25.5728 27.8535 25.5754 27.8629 25.5799 27.8715C25.9015 28.4927 26.2683 29.0895 26.6772 29.657C26.6855 29.6687 26.6972 29.6775 26.7108 29.6821C26.7244 29.6867 26.7391 29.6869 26.7528 29.6826C28.6858 29.0903 30.5035 28.1725 32.1278 26.9687C32.1357 26.9629 32.1423 26.9555 32.1472 26.9469C32.152 26.9384 32.155 26.9289 32.1559 26.9191C32.6044 22.2815 31.4051 18.2528 28.9771 14.6818C28.9717 14.6701 28.9623 14.6607 28.9506 14.6553ZM17.9344 24.4752C16.8749 24.4752 16.0028 23.5026 16.0028 22.3084C16.0028 21.1141 16.8586 20.1416 17.9344 20.1416C19.0191 20.1416 19.8837 21.1225 19.866 22.3084C19.8669 23.5026 19.0107 24.4752 17.9344 24.4752ZM25.0785 24.4752C24.0191 24.4752 23.1469 23.5026 23.1469 22.3084C23.1469 21.1141 24.0027 20.1416 25.0785 20.1416C26.1632 20.1416 27.0278 21.1225 27.0102 22.3084C27.0106 23.5026 26.1632 24.4752 25.0785 24.4752Z" fill="white"/>
</g>
<defs>
<clipPath id="clip0_27_172">
<rect width="43" height="43" fill="white"/>
</clipPath>
</defs>
</svg>
