<svg width="44" height="44" viewBox="0 0 44 44" fill="none" xmlns="http://www.w3.org/2000/svg">
<path d="M34.5 0.125H9.5C4.32233 0.125 0.125 4.32233 0.125 9.5V34.5C0.125 39.6777 4.32233 43.875 9.5 43.875H34.5C39.6777 43.875 43.875 39.6777 43.875 34.5V9.5C43.875 4.32233 39.6777 0.125 34.5 0.125Z" fill="url(#paint0_radial_45_37)"/>
<path d="M34.5 0.125H9.5C4.32233 0.125 0.125 4.32233 0.125 9.5V34.5C0.125 39.6777 4.32233 43.875 9.5 43.875H34.5C39.6777 43.875 43.875 39.6777 43.875 34.5V9.5C43.875 4.32233 39.6777 0.125 34.5 0.125Z" fill="url(#paint1_radial_45_37)"/>
<path d="M34.5 0.125H9.5C4.32233 0.125 0.125 4.32233 0.125 9.5V34.5C0.125 39.6777 4.32233 43.875 9.5 43.875H34.5C39.6777 43.875 43.875 39.6777 43.875 34.5V9.5C43.875 4.32233 39.6777 0.125 34.5 0.125Z" fill="url(#paint2_radial_45_37)"/>
<path d="M32.9375 13.4062C32.9375 14.7006 31.8881 15.75 30.5938 15.75C29.2994 15.75 28.25 14.7006 28.25 13.4062C28.25 12.1118 29.2994 11.0625 30.5938 11.0625C31.8881 11.0625 32.9375 12.1118 32.9375 13.4062Z" fill="white"/>
<path fill-rule="evenodd" clip-rule="evenodd" d="M22 29.8125C26.3147 29.8125 29.8125 26.3147 29.8125 22C29.8125 17.6853 26.3147 14.1875 22 14.1875C17.6853 14.1875 14.1875 17.6853 14.1875 22C14.1875 26.3147 17.6853 29.8125 22 29.8125ZM22 26.6875C24.5889 26.6875 26.6875 24.5889 26.6875 22C26.6875 19.4111 24.5889 17.3125 22 17.3125C19.4111 17.3125 17.3125 19.4111 17.3125 22C17.3125 24.5889 19.4111 26.6875 22 26.6875Z" fill="white"/>
<path fill-rule="evenodd" clip-rule="evenodd" d="M6.375 21.375C6.375 16.1245 6.375 13.4992 7.39681 11.4938C8.29563 9.72981 9.72981 8.29563 11.4938 7.39681C13.4992 6.375 16.1245 6.375 21.375 6.375H22.625C27.8755 6.375 30.5008 6.375 32.5061 7.39681C34.2702 8.29563 35.7044 9.72981 36.6031 11.4938C37.625 13.4992 37.625 16.1245 37.625 21.375V22.625C37.625 27.8755 37.625 30.5008 36.6031 32.5061C35.7044 34.2702 34.2702 35.7044 32.5061 36.6031C30.5008 37.625 27.8755 37.625 22.625 37.625H21.375C16.1245 37.625 13.4992 37.625 11.4938 36.6031C9.72981 35.7044 8.29563 34.2702 7.39681 32.5061C6.375 30.5008 6.375 27.8755 6.375 22.625V21.375ZM21.375 9.5H22.625C25.3019 9.5 27.1214 9.50244 28.528 9.61734C29.8981 9.72928 30.5987 9.93217 31.0875 10.1812C32.2634 10.7804 33.2195 11.7365 33.8187 12.9125C34.0678 13.4013 34.2708 14.1019 34.3827 15.472C34.4975 16.8786 34.5 18.6981 34.5 21.375V22.625C34.5 25.3019 34.4975 27.1214 34.3827 28.528C34.2708 29.8981 34.0678 30.5987 33.8187 31.0875C33.2195 32.2634 32.2634 33.2195 31.0875 33.8187C30.5987 34.0678 29.8981 34.2708 28.528 34.3827C27.1214 34.4975 25.3019 34.5 22.625 34.5H21.375C18.6981 34.5 16.8786 34.4975 15.472 34.3827C14.1019 34.2708 13.4013 34.0678 12.9125 33.8187C11.7365 33.2195 10.7804 32.2634 10.1812 31.0875C9.93217 30.5987 9.72928 29.8981 9.61734 28.528C9.50244 27.1214 9.5 25.3019 9.5 22.625V21.375C9.5 18.6981 9.50244 16.8786 9.61734 15.472C9.72928 14.1019 9.93217 13.4013 10.1812 12.9125C10.7804 11.7365 11.7365 10.7804 12.9125 10.1812C13.4013 9.93217 14.1019 9.72928 15.472 9.61734C16.8786 9.50244 18.6981 9.5 21.375 9.5Z" fill="white"/>
<defs>
<radialGradient id="paint0_radial_45_37" cx="0" cy="0" r="1" gradientUnits="userSpaceOnUse" gradientTransform="translate(15.75 32.9375) rotate(-55.3758) scale(39.8744)">
<stop stop-color="#B13589"/>
<stop offset="0.79309" stop-color="#C62F94"/>
<stop offset="1" stop-color="#8A3AC8"/>
</radialGradient>
<radialGradient id="paint1_radial_45_37" cx="0" cy="0" r="1" gradientUnits="userSpaceOnUse" gradientTransform="translate(14.1875 45.4375) rotate(-65.1363) scale(35.3034)">
<stop stop-color="#E0E8B7"/>
<stop offset="0.444662" stop-color="#FB8A2E"/>
<stop offset="0.71474" stop-color="#E2425C"/>
<stop offset="1" stop-color="#E2425C" stop-opacity="0"/>
</radialGradient>
<radialGradient id="paint2_radial_45_37" cx="0" cy="0" r="1" gradientUnits="userSpaceOnUse" gradientTransform="translate(-2.21875 1.6875) rotate(-8.1301) scale(60.767 12.9974)">
<stop offset="0.156701" stop-color="#406ADC"/>
<stop offset="0.467799" stop-color="#6A45BE"/>
<stop offset="1" stop-color="#6A45BE" stop-opacity="0"/>
</radialGradient>
</defs>
</svg>
