<svg width="42" height="42" viewBox="0 0 42 42" fill="none" xmlns="http://www.w3.org/2000/svg">
<g clip-path="url(#clip0_27_176)">
<path fill-rule="evenodd" clip-rule="evenodd" d="M4.2 0H37.8C40.1197 0 42 1.88026 42 4.2V37.8C42 40.1197 40.1197 42 37.8 42H4.2C1.88026 42 0 40.1197 0 37.8V4.2C0 1.88026 1.88026 0 4.2 0Z" fill="#010101"/>
<path fill-rule="evenodd" clip-rule="evenodd" d="M26.3726 38.64C27.6506 38.64 28.6867 37.6123 28.6867 36.3448C28.6867 35.0772 27.6506 34.0494 26.3726 34.0494H26.024C27.302 34.0494 28.3381 35.0772 28.3381 36.3448C28.3381 37.6123 27.302 38.64 26.024 38.64H26.3726Z" fill="#EE1D51"/>
<path fill-rule="evenodd" clip-rule="evenodd" d="M25.9925 34.0494H25.6439C24.3659 34.0494 23.3297 35.0772 23.3297 36.3448C23.3297 37.6123 24.3659 38.64 25.6439 38.64H25.9925C24.7144 38.64 23.6783 37.6123 23.6783 36.3448C23.6783 35.0772 24.7144 34.0494 25.9925 34.0494Z" fill="#66C8CF"/>
<path d="M26.0082 37.4608C26.6298 37.4608 27.1337 36.9611 27.1337 36.3448C27.1337 35.7284 26.6298 35.2288 26.0082 35.2288C25.3867 35.2288 24.8828 35.7284 24.8828 36.3448C24.8828 36.9611 25.3867 37.4608 26.0082 37.4608Z" fill="#010101"/>
<path fill-rule="evenodd" clip-rule="evenodd" d="M8.40002 33.012V34.1754H9.76284V38.6086H11.1262V34.2068H12.2355L12.6158 33.012H8.40002ZM19.5577 33.012V34.1754H20.9206V38.6086H22.2839V34.2068H23.3932L23.7735 33.012H19.5577ZM12.8697 33.6723C12.8697 33.3077 13.1672 33.012 13.5348 33.012C13.9027 33.012 14.2006 33.3077 14.2006 33.6723C14.2006 34.0368 13.9029 34.3325 13.5348 34.3325C13.1672 34.3323 12.8697 34.0368 12.8697 33.6723ZM12.8697 34.8042H14.2006V38.6086H12.8697V34.8042ZM14.7713 33.012V38.6086H16.1027V37.1625L16.5148 36.7848L17.8142 38.64H19.2406L17.3702 35.9361L19.0502 34.3009H17.4337L16.1027 35.6214V33.012H14.7713ZM29.1302 33.012V38.6086H30.4618V37.1625L30.8737 36.7848L32.1735 38.64H33.6L31.7297 35.9361L33.4097 34.3009H31.7932L30.4618 35.6214V33.012H29.1302Z" fill="white"/>
<path fill-rule="evenodd" clip-rule="evenodd" d="M27.076 13.6392C28.9146 14.9528 31.1672 15.7258 33.5998 15.7258V11.0468C33.1394 11.047 32.6802 10.999 32.2298 10.9035V14.5866C29.7973 14.5866 27.5451 13.8136 25.706 12.5V22.0483C25.706 26.8249 21.8319 30.6968 17.0531 30.6968C15.2702 30.6968 13.6128 30.158 12.2361 29.234C13.8074 30.8397 15.9986 31.836 18.4229 31.836C23.2019 31.836 27.0762 27.9641 27.0762 23.1873L27.076 13.6392ZM28.7661 8.91877C27.8265 7.89279 27.2096 6.56677 27.076 5.1008V4.49902H25.7777C26.1045 6.36214 27.2192 7.95394 28.7661 8.91877ZM15.2586 25.5687C14.7336 24.8808 14.4499 24.0391 14.4512 23.1737C14.4512 20.9891 16.2232 19.2178 18.4094 19.2178C18.8168 19.2176 19.2218 19.2801 19.6101 19.4031V14.6197C19.1564 14.5575 18.6984 14.5312 18.2406 14.5409V18.2641C17.8521 18.141 17.4469 18.0785 17.0394 18.0788C14.8532 18.0788 13.0813 19.85 13.0813 22.0349C13.0813 23.5796 13.967 24.9172 15.2586 25.5687Z" fill="#EE1D52"/>
<path fill-rule="evenodd" clip-rule="evenodd" d="M25.706 12.5C27.5451 13.8136 29.7973 14.5866 32.2298 14.5866V10.9035C30.872 10.6146 29.67 9.90526 28.7662 8.91877C27.2192 7.95394 26.1045 6.36214 25.7778 4.49902H22.3675V23.1872C22.3598 25.3658 20.5908 27.1298 18.4093 27.1298C17.1238 27.1298 15.9817 26.5174 15.2585 25.5687C13.9669 24.9172 13.0812 23.5796 13.0812 22.0349C13.0812 19.85 14.8531 18.0788 17.0393 18.0788C17.4581 18.0788 17.8618 18.144 18.2405 18.2641V14.5409C13.5457 14.6378 9.7699 18.4719 9.7699 23.1873C9.7699 25.5412 10.7102 27.6751 12.2361 29.2342C13.6129 30.1582 15.2702 30.6969 17.0532 30.6969C21.832 30.6969 25.706 26.8249 25.706 22.0485V12.5Z" fill="white"/>
<path fill-rule="evenodd" clip-rule="evenodd" d="M32.2298 10.9035V9.90762C31.0053 9.90946 29.805 9.56673 28.7662 8.9186C29.6858 9.92489 30.8967 10.6188 32.2298 10.9035ZM25.7778 4.49903C25.7466 4.32099 25.7226 4.14175 25.706 3.96176V3.35999H20.9973V22.0483C20.9898 24.2268 19.2209 25.9908 17.0393 25.9908C16.3987 25.9908 15.794 25.8389 15.2585 25.5687C15.9817 26.5174 17.1238 27.1298 18.4093 27.1298C20.5906 27.1298 22.3598 25.3658 22.3675 23.1872V4.49903H25.7778ZM18.2406 14.5409V13.4806C17.8472 13.4268 17.4505 13.4 17.0534 13.4002C12.2741 13.4002 8.40002 17.2722 8.40002 22.0483C8.40002 25.0427 9.92261 27.6817 12.2363 29.234C10.7104 27.675 9.77006 25.541 9.77006 23.1872C9.77006 18.4719 13.5457 14.6378 18.2406 14.5409Z" fill="#69C9D0"/>
<path fill-rule="evenodd" clip-rule="evenodd" d="M26.0238 38.64C27.3018 38.64 28.338 37.6123 28.338 36.3448C28.338 35.0772 27.3018 34.0494 26.0238 34.0494H25.9923C24.7143 34.0494 23.6782 35.0772 23.6782 36.3448C23.6782 37.6123 24.7143 38.64 25.9923 38.64H26.0238ZM24.8828 36.3448C24.8828 35.7282 25.3868 35.2287 26.0084 35.2287C26.6295 35.2287 27.1335 35.7282 27.1335 36.3448C27.1335 36.9613 26.6295 37.4611 26.0084 37.4611C25.3868 37.461 24.8828 36.9613 24.8828 36.3448Z" fill="white"/>
</g>
<defs>
<clipPath id="clip0_27_176">
<rect width="42" height="42" fill="white"/>
</clipPath>
</defs>
</svg>
