<svg width="56" height="40" viewBox="0 0 56 40" fill="none" xmlns="http://www.w3.org/2000/svg">
<path fill-rule="evenodd" clip-rule="evenodd" d="M22.218 27.3149L22.2162 11.4691L37.3468 19.4193L22.218 27.3149ZM55.44 8.72322C55.44 8.72322 54.8922 4.8371 53.214 3.12579C51.0842 0.878715 48.6972 0.86812 47.6035 0.737701C39.767 0.166679 28.0122 0.166687 28.0122 0.166687H27.9878C27.9878 0.166687 16.233 0.166679 8.39651 0.737701C7.30101 0.86812 4.91576 0.878715 2.78426 3.12579C1.10601 4.8371 0.559995 8.72322 0.559995 8.72322C0.559995 8.72322 0 13.2879 0 17.8508V22.1299C0 26.6946 0.559995 31.2575 0.559995 31.2575C0.559995 31.2575 1.10601 35.1436 2.78426 36.8549C4.91576 39.102 7.71399 39.0315 8.95999 39.2659C13.44 39.6994 28 39.8334 28 39.8334C28 39.8334 39.767 39.8157 47.6035 39.2447C48.6972 39.1125 51.0842 39.102 53.214 36.8549C54.8922 35.1436 55.44 31.2575 55.44 31.2575C55.44 31.2575 56 26.6946 56 22.1299V17.8508C56 13.2879 55.44 8.72322 55.44 8.72322Z" fill="#CE1312"/>
</svg>
